<mxfile host="app.diagrams.net" modified="2023-03-01T13:19:38.547Z" agent="5.0 (Windows NT 10.0; Win64; x64) AppleWebKit/537.36 (KHTML, like Gecko) Chrome/108.0.0.0 Safari/537.36" etag="N9iGEajZgvsX33Vf_-1V" version="20.8.16" type="github">
  <diagram name="第 1 页" id="NfTh0uVME7XGQNFgkyi6">
    <mxGraphModel dx="1434" dy="708" grid="1" gridSize="10" guides="1" tooltips="1" connect="1" arrows="1" fold="1" page="1" pageScale="1" pageWidth="827" pageHeight="1169" math="0" shadow="0">
      <root>
        <mxCell id="0" />
        <mxCell id="1" parent="0" />
        <mxCell id="y8TETr7OdmDqIfqpWKWa-4" style="edgeStyle=orthogonalEdgeStyle;rounded=0;orthogonalLoop=1;jettySize=auto;html=1;entryX=0;entryY=0.5;entryDx=0;entryDy=0;" edge="1" parent="1" source="y8TETr7OdmDqIfqpWKWa-1" target="y8TETr7OdmDqIfqpWKWa-2">
          <mxGeometry relative="1" as="geometry" />
        </mxCell>
        <mxCell id="y8TETr7OdmDqIfqpWKWa-1" value="" style="rounded=1;whiteSpace=wrap;html=1;" vertex="1" parent="1">
          <mxGeometry x="200" y="580" width="110" height="60" as="geometry" />
        </mxCell>
        <mxCell id="y8TETr7OdmDqIfqpWKWa-5" style="edgeStyle=orthogonalEdgeStyle;rounded=0;orthogonalLoop=1;jettySize=auto;html=1;entryX=0;entryY=0.5;entryDx=0;entryDy=0;" edge="1" parent="1" source="y8TETr7OdmDqIfqpWKWa-2" target="y8TETr7OdmDqIfqpWKWa-3">
          <mxGeometry relative="1" as="geometry" />
        </mxCell>
        <mxCell id="y8TETr7OdmDqIfqpWKWa-2" value="" style="whiteSpace=wrap;html=1;aspect=fixed;" vertex="1" parent="1">
          <mxGeometry x="520" y="570" width="80" height="80" as="geometry" />
        </mxCell>
        <mxCell id="y8TETr7OdmDqIfqpWKWa-3" value="" style="ellipse;whiteSpace=wrap;html=1;aspect=fixed;" vertex="1" parent="1">
          <mxGeometry x="970" y="610" width="80" height="80" as="geometry" />
        </mxCell>
      </root>
    </mxGraphModel>
  </diagram>
</mxfile>
